<svg
    xmlns="http://www.w3.org/2000/svg"
    fill="none"
    viewBox="0 0 1701 340"
    aria-hidden="true"
    ><path
      fill="#000"
      d="M161.686 339.784C68.505 339.784.393 275.456.393 170.45S67.559 1.116 161.686 1.116c78.045 0 130.075 47.3 137.643 112.101h-43.043c-7.568-43.989-43.989-74.734-94.6-74.734-69.531 0-117.777 50.138-117.777 131.967 0 81.829 48.246 131.967 117.777 131.967 51.084 0 89.397-35.475 96.019-79.937h43.043c-8.041 65.747-61.017 117.304-139.062 117.304ZM341.936 336V97.608h40.205v42.097c13.244-27.434 43.043-45.881 74.734-45.881 9.46 0 19.393 1.419 26.961 5.203v38.786c-11.352-4.73-22.231-6.149-31.691-6.149-39.732 0-70.004 38.786-70.004 108.79V336h-40.205Zm267.94 3.784c-70.477 0-119.669-51.084-119.669-122.98s49.192-122.98 116.831-122.98c72.842 0 118.25 56.76 109.263 128.183H531.358c1.892 50.611 32.164 82.775 77.099 82.775 34.529 0 57.233-17.501 64.801-44.935h40.678c-8.514 46.354-49.192 79.937-104.06 79.937Zm-76.153-149.941H675.15c0-37.84-27.907-61.49-68.112-61.49-38.786 0-65.274 21.758-73.315 61.49Zm301.175 149.941c-51.557 0-84.194-26.488-84.194-68.112 0-47.773 33.583-71.896 109.263-79.464l51.084-5.203v-8.514c0-31.691-23.177-50.138-57.706-50.138-33.11 0-54.868 17.028-59.598 50.138h-40.678c6.622-45.408 41.624-84.667 100.276-84.667 57.233 0 98.384 33.583 98.384 88.924V336h-40.678v-39.732c-9.46 22.704-41.624 43.516-76.153 43.516Zm-43.043-69.531c0 21.758 17.974 35.002 46.827 35.002 42.57 0 72.369-33.583 72.369-75.68v-11.352l-48.719 5.676c-49.665 5.676-70.477 17.501-70.477 46.354Zm296.315 69.531c-40.68 0-70.48-25.542-70.48-74.261V131.191h-40.674V97.608h40.674V37.064h40.21v60.544h60.54v33.583h-60.54v131.021c0 27.907 14.19 41.624 35 41.624 8.99 0 18.92-1.892 26.96-4.73v34.529c-8.98 4.257-20.81 6.149-31.69 6.149Zm66.74-3.784V97.608h40.68V336h-40.68Zm-1.89-288.057V.643h43.99v47.3h-43.99ZM1320.81 336l-93.66-238.392h43.99l70.48 186.362 70.95-186.362h42.09L1361.01 336h-40.2Zm264.07 3.784c-70.47 0-119.67-51.084-119.67-122.98s49.2-122.98 116.84-122.98c72.84 0 118.25 56.76 109.26 128.183h-184.94c1.89 50.611 32.16 82.775 77.09 82.775 34.53 0 57.24-17.501 64.81-44.935h40.67c-8.51 46.354-49.19 79.937-104.06 79.937Zm-76.15-149.941h141.43c0-37.84-27.91-61.49-68.11-61.49-38.79 0-65.28 21.758-73.32 61.49Z"
    ></path></svg>