<svg width="1075" height="1439" viewBox="0 0 1075 1439" fill="none" xmlns="http://www.w3.org/2000/svg">
<g filter="url(#filter0_d_980_86)">
<path fill-rule="evenodd" clip-rule="evenodd" d="M248.59 622.416L163.758 537.583L537.265 164.076L900.855 527.667L807.916 620.606C807.043 621.479 806.198 622.371 805.381 623.279L632.492 450.39C632.55 449.049 632.58 447.701 632.58 446.346C632.58 395.659 591.49 354.568 540.803 354.568C490.116 354.568 449.026 395.659 449.026 446.346C449.026 492.078 482.475 529.998 526.242 536.975L891.316 902.049L850.543 942.821L750.966 843.245C724.341 816.62 681.174 816.62 654.549 843.245C627.924 869.87 627.924 913.037 654.549 939.662L754.126 1039.24L528.891 1264.47L164.129 899.712L248.59 815.251L423.176 989.836C427.417 1036.59 466.718 1073.21 514.573 1073.21C565.261 1073.21 606.351 1032.12 606.351 981.436C606.351 931.173 565.945 890.346 515.842 889.667L345.008 718.833L388.06 675.781L450.974 738.696C477.599 765.321 520.767 765.321 547.392 738.696C574.017 712.071 574.017 668.904 547.392 642.279L437.655 532.542C422.043 516.93 400.743 510.472 380.426 513.169C364.996 514.502 349.933 521.074 338.124 532.883L248.59 622.416ZM528.284 1428.25C510.766 1428.31 493.231 1421.65 479.865 1408.28L20.0271 948.445C2.43115 930.849 -3.53596 906.028 2.12576 883.532C4.89318 871.48 10.971 860.035 20.3594 850.647L152.173 718.833L20.0271 586.687C7.08176 573.742 0.430587 556.886 0.073559 539.922C-0.783416 521.431 5.84831 502.658 19.9687 488.538L488.538 19.9687C503.538 4.96844 523.789 -1.5808 543.374 0.32101C558.95 1.57176 574.178 8.15465 586.093 20.0697L1045.93 479.908C1072.56 506.533 1072.56 549.7 1045.93 576.325C1043.88 578.377 1041.73 580.271 1039.5 582.007C1038.38 583.306 1037.2 584.573 1035.97 585.805L904.543 717.232C903.669 718.106 902.778 718.951 901.87 719.767L1035.56 853.456C1041 858.897 1045.33 865.03 1048.55 871.57C1061.38 897.121 1057.14 929.06 1035.81 950.386L577.902 1408.3C564.231 1421.97 546.199 1428.62 528.284 1428.25ZM551.863 944.368C572.316 964.877 572.271 998.082 551.762 1018.53C531.253 1038.99 498.048 1038.94 477.595 1018.43C457.143 997.925 457.188 964.719 477.697 944.267C498.205 923.814 531.411 923.859 551.863 944.368ZM578.044 483.669C598.552 463.217 598.598 430.011 578.145 409.503C557.693 388.994 524.487 388.948 503.978 409.401C483.47 429.854 483.424 463.059 503.877 483.568C524.33 504.076 557.535 504.122 578.044 483.669Z" fill="url(#paint0_linear_980_86)"/>
</g>
<defs>
<filter id="filter0_d_980_86" x="0" y="0" width="1074.9" height="1438.27" filterUnits="userSpaceOnUse" color-interpolation-filters="sRGB">
<feFlood flood-opacity="0" result="BackgroundImageFix"/>
<feColorMatrix in="SourceAlpha" type="matrix" values="0 0 0 0 0 0 0 0 0 0 0 0 0 0 0 0 0 0 127 0" result="hardAlpha"/>
<feOffset dx="5" dy="6"/>
<feGaussianBlur stdDeviation="2"/>
<feComposite in2="hardAlpha" operator="out"/>
<feColorMatrix type="matrix" values="0 0 0 0 0 0 0 0 0 0 0 0 0 0 0 0 0 0 0.25 0"/>
<feBlend mode="normal" in2="BackgroundImageFix" result="effect1_dropShadow_980_86"/>
<feBlend mode="normal" in="SourceGraphic" in2="effect1_dropShadow_980_86" result="shape"/>
</filter>
<linearGradient id="paint0_linear_980_86" x1="533" y1="174.5" x2="533" y2="1259.5" gradientUnits="userSpaceOnUse">
<stop stop-color="#3A6073"/>
<stop offset="1" stop-color="#16222A"/>
</linearGradient>
</defs>
</svg>
