<svg width="3440" height="314" viewBox="0 0 3440 314" fill="none" xmlns="http://www.w3.org/2000/svg">
<path d="M65.9452 83.6082C65.9452 96.3917 70.6875 105.67 80.172 111.443C89.6565 118.454 109.863 125.67 140.791 133.093C173.368 140.928 197.079 151.649 211.925 165.258C227.182 178.866 234.811 198.454 234.811 224.021C234.811 250.825 224.708 272.474 204.502 288.969C184.708 305.464 158.729 313.711 126.564 313.711C79.9658 313.711 37.9039 297.216 0.378174 264.227L32.5431 225.876C63.8833 252.68 95.6359 266.082 127.801 266.082C143.883 266.082 156.873 262.577 166.77 255.567C176.667 248.144 181.615 238.66 181.615 227.113C181.615 215.567 177.079 206.495 168.007 199.897C159.347 193.299 143.677 187.32 120.997 181.959C81.8215 172.887 54.605 162.165 39.3472 149.794C21.6153 136.186 12.7493 115.361 12.7493 87.3196C12.7493 60.1031 22.6462 38.866 42.44 23.6082C62.2338 7.93814 87.5947 0.103081 118.523 0.103081C160.172 0.103081 195.842 12.268 225.533 36.5979L198.316 74.9484C189.244 66.701 177.079 60.1031 161.821 55.1546C146.564 49.7938 131.512 47.1134 116.667 47.1134C101.409 47.1134 89.038 50.4124 79.5534 57.0103C70.4813 63.1959 65.9452 72.0619 65.9452 83.6082Z" fill="black"/>
<path d="M319.848 241.34L289.538 310H235.105L368.714 7.52575H423.147L556.136 310H501.703L471.394 241.34H319.848ZM450.982 193.711L395.93 69.3814L340.879 193.711H450.982Z" fill="black"/>
<path d="M753.55 199.897L832.725 310H767.777L695.405 207.938H628.601V310H577.261V7.52575H689.838C735.612 7.52575 768.395 15.3608 788.189 31.0309C808.395 46.2887 818.498 71.2371 818.498 105.876C818.498 155.773 796.849 187.113 753.55 199.897ZM691.694 162.165C720.148 162.165 739.735 157.835 750.457 149.175C761.179 140.515 766.539 125.876 766.539 105.258C766.539 85.4639 761.179 72.0618 750.457 65.0515C739.735 57.6289 720.56 53.9175 692.931 53.9175H628.601V162.165H691.694Z" fill="black"/>
<path d="M975.413 7.52575C1020.77 7.52575 1053.97 16.3917 1075 34.1237C1096.44 51.4433 1107.17 78.4536 1107.17 115.155C1107.17 151.443 1096.44 178.247 1075 195.567C1053.56 212.474 1020.57 220.928 976.032 220.928H922.836V310H871.495V7.52575H975.413ZM981.599 175.155C1008.82 175.155 1027.78 170 1038.51 159.691C1049.64 149.381 1055.21 133.093 1055.21 110.825C1055.21 90.2062 1048.81 75.567 1036.03 66.9072C1023.25 58.2474 1002.63 53.9175 974.176 53.9175H922.836V175.155H981.599Z" fill="black"/>
<path d="M1146.98 7.52575H1198.32V310H1146.98V7.52575Z" fill="black"/>
<path d="M1487.76 7.52575H1538.48V310H1483.43L1312.09 89.1753V310H1260.75V7.52575H1312.09L1487.76 233.299V7.52575Z" fill="black"/>
<path d="M1742.48 241.34L1712.17 310H1657.74L1791.35 7.52575H1845.78L1978.77 310H1924.34L1894.03 241.34H1742.48ZM1873.61 193.711L1818.56 69.3814L1763.51 193.711H1873.61Z" fill="#284B63"/>
<path d="M2209.58 162.784H2260.31V266.082C2231.85 297.835 2191.03 313.711 2137.83 313.711C2092.88 313.711 2055.36 298.866 2025.25 269.175C1995.15 239.485 1980.1 202.371 1980.1 157.835C1980.1 113.299 1995.36 75.9794 2025.87 45.8763C2056.8 15.3608 2094.12 0.103081 2137.83 0.103081C2181.54 0.103081 2217.83 12.6804 2246.7 37.835L2219.48 76.8041C2198.45 59.0722 2172.68 50.2062 2142.16 50.2062C2111.23 50.2062 2085.25 60.3093 2064.22 80.5155C2043.61 100.309 2033.3 126.082 2033.3 157.835C2033.3 189.588 2043.19 215.361 2062.99 235.155C2083.19 254.536 2108.14 264.227 2137.83 264.227C2166.7 264.227 2190.62 258.041 2209.58 245.67V162.784Z" fill="#284B63"/>
<path d="M2519.8 7.52575V55.1546H2358.36V135.567H2503.1V180.722H2358.36V261.753H2524.75V310H2307.02V7.52575H2519.8Z" fill="#284B63"/>
<path d="M2796.04 7.52575H2846.76V310H2791.71L2620.37 89.1753V310H2569.03V7.52575H2620.37L2796.04 233.299V7.52575Z" fill="#284B63"/>
<path d="M3133.44 226.495L3166.22 259.897C3134.88 295.773 3096.12 313.711 3049.93 313.711C3004.16 313.711 2966.01 299.072 2935.5 269.794C2905.39 240.103 2890.34 202.783 2890.34 157.835C2890.34 112.474 2905.81 74.9484 2936.73 45.2577C2967.66 15.1546 3006.63 0.103081 3053.64 0.103081C3099.83 0.103081 3138.8 17.4227 3170.55 52.0619L3138.38 87.3196C3123.95 73.299 3110.34 63.6082 3097.56 58.2474C3084.78 52.8866 3069.72 50.2062 3052.4 50.2062C3021.48 50.2062 2995.5 60.1031 2974.47 79.8969C2953.85 99.6907 2943.54 124.845 2943.54 155.361C2943.54 185.464 2953.85 211.031 2974.47 232.062C2995.08 253.093 3019.62 263.608 3048.07 263.608C3065.39 263.608 3080.24 260.722 3092.61 254.948C3105.39 249.175 3119 239.691 3133.44 226.495Z" fill="#284B63"/>
<path d="M3326.65 310H3274.69V190.619L3162.11 7.52575H3218.4L3300.67 144.845L3383.56 7.52575H3439.23L3326.65 190.619V310Z" fill="#284B63"/>
</svg>
